<svg id="Layer_1" data-name="Layer 1" xmlns="http://www.w3.org/2000/svg" viewBox="0 0 686 151.62"><defs><style>.cls-1{fill:#e8412a;}</style></defs><title>Artboard 3</title><path class="cls-1" d="M196.61,51.54a25.84,25.84,0,0,0-11.26,2.92c-3.95,1.9-6.72,3.95-8.48,6.44v-38h-15.2V126.4h15.2v-8.48c2.78,4.82,11.12,9.65,20,9.65,21.5,0,32.9-14,32.9-38C229.8,66.16,218.25,51.54,196.61,51.54Zm11.84,56a17.33,17.33,0,0,1-27.19,0q-5.26-6.81-5.26-18c0-7.45,1.75-13.45,5.26-17.84a17.11,17.11,0,0,1,27.19,0c3.51,4.39,5.27,10.39,5.27,17.84S212,103,208.45,107.54Z"/><path class="cls-1" d="M272.93,51.54c-24.27,0-34.36,20.47-34.36,38s10.09,38,34.36,38c16.23,0,24.86-6.29,32.31-20.76l-13-5.12a21.26,21.26,0,0,1-19.3,12.43c-11.55,0-18.28-8.78-18.28-20.33h52.2V87.21C306.85,70.69,296.47,51.54,272.93,51.54ZM255,81.07c1.75-9.5,8.18-16.08,18-16.08,10.38,0,16.52,6.87,17.84,16.08Z"/><path class="cls-1" d="M390.56,114.12c-6.58,0-9.8-4-9.8-12v-36h19.16V52.71H380.76V22.88l-15.2,9.5V52.71H334.14V22.88l-15.2,9.5v68.87c0,17.4,9.5,26.32,24.12,26.32a27,27,0,0,0,11.84-2.63L351,112.07a13.59,13.59,0,0,1-7,2.05c-6.58,0-9.8-4-9.8-12v-36h31.42v35.09c0,17.4,9.5,26.32,24.12,26.32a27.12,27.12,0,0,0,11.85-2.63l-3.95-12.87A13.54,13.54,0,0,1,390.56,114.12Z"/><path class="cls-1" d="M440.71,51.54c-24.27,0-34.36,20.47-34.36,38s10.09,38,34.36,38c16.23,0,24.86-6.29,32.31-20.76l-13-5.12a21.26,21.26,0,0,1-19.3,12.43c-11.55,0-18.28-8.78-18.28-20.33h52.2V87.21C474.63,70.69,464.25,51.54,440.71,51.54Zm-18,29.53c1.75-9.5,8.18-16.08,18-16.08,10.38,0,16.52,6.87,17.84,16.08Z"/><path class="cls-1" d="M501.83,65V52.71h-15.2V126.4h15.2V99.06c0-11,1.9-19.3,5.85-25.15s8.63-8.92,14-8.92a16.13,16.13,0,0,1,8.63,2.19L533,53.29a24.81,24.81,0,0,0-9.36-1.75C515.43,51.54,506.66,56.36,501.83,65Z"/><path class="cls-1" d="M563.35,50.81c0-8.63,6.14-14.48,16.23-14.48a35.84,35.84,0,0,1,14.92,3.36l4.82-12.57c-5.12-2.78-11.84-4.24-20.17-4.24-8.63,0-16.09,2.34-22.08,7s-8.92,11.55-8.92,20.91v1.9h-9.5V66.16h9.5V126.4h15.2V66.16h33.28V126.4h15.21V52.71H563.35Z"/><path class="cls-1" d="M664.36,51.54a27.41,27.41,0,0,0-23.83,13.74V52.71H625.32V126.4h15.21V96.57c0-9.65,1.9-17.25,5.55-22.95,3.81-5.71,8.19-8.63,13.31-8.63,7.6,0,11.4,4.53,11.4,13.45v48H686V73.62C686,59.58,677.37,51.54,664.36,51.54Z"/><circle class="cls-1" cx="23.89" cy="23.62" r="23.62" transform="translate(-4.79 6.12) rotate(-13.28)"/><circle class="cls-1" cx="23.62" cy="75.86" r="23.62" transform="translate(-27.23 14.81) rotate(-22.5)"/><circle class="cls-1" cx="76.31" cy="75.86" r="23.62" transform="translate(-23.22 34.98) rotate(-22.5)"/><circle class="cls-1" cx="23.62" cy="128" r="23.62" transform="matrix(0.38, -0.92, 0.92, 0.38, -103.68, 100.84)"/><circle class="cls-1" cx="76.31" cy="128" r="23.62" transform="translate(-71.15 149.52) rotate(-67.5)"/></svg>